<?xml version="1.0" encoding="utf-8"?>
<!-- Generator: Adobe Illustrator 25.3.0, SVG Export Plug-In . SVG Version: 6.00 Build 0)  -->
<svg version="1.1" xmlns="http://www.w3.org/2000/svg" xmlns:xlink="http://www.w3.org/1999/xlink" x="0px" y="0px"
	 viewBox="0 0 364.7 364.7" style="enable-background:new 0 0 364.7 364.7;" xml:space="preserve">
<style type="text/css">
	.st0{fill:none;stroke:#FFFFFF;stroke-width:0.5;stroke-miterlimit:10;}
	.st1{fill:#9A9483;}
</style>
<g id="Original">
	<g>
		<g>
			<path class="st0" d="M165.8,22.5C98,30,43.4,86.2,36,154.6C28.6,226,68.5,289.7,128.9,314c4.4,1.5,8.9-1.5,8.9-7.6v-24.3
				c0,0-5.9,1.5-13.3,1.5c-20.7,0-29.5-18.2-31-28.9c-1.5-6.1-4.4-10.6-8.9-15.2c-4.4-1.5-5.9-1.5-5.9-3c0-3,4.4-3,5.9-3
				c8.9,0,16.2,10.6,19.2,15.2c7.4,12.1,16.2,15.2,20.7,15.2c5.9,0,10.3-1.5,13.3-3c1.5-10.6,5.9-21.3,14.8-27.3
				c-33.9-7.6-59-27.3-59-60.7c0-16.7,7.4-33.4,17.7-45.6c-1.5-3-3-10.6-3-21.3c0-6.1,0-15.2,4.4-24.3c0,0,20.7,0,41.3,19.7
				c7.4-3,17.7-4.6,28-4.6c10.3,0,20.7,1.5,29.5,4.6c19.2-19.7,41.3-19.7,41.3-19.7c3,9.1,3,18.2,3,24.3c0,12.1-1.5,18.2-3,21.3
				c10.3,12.1,17.7,27.3,17.7,45.6c0,33.4-25.1,53.2-59,60.7c8.9,7.6,14.8,21.3,14.8,34.9V308c0,4.6,4.4,9.1,10.3,7.6
				c54.6-22.8,92.9-77.5,92.9-141.2C329.6,83.2,254.3,11.8,165.8,22.5z"/>
			<path class="st1" d="M165.8,22.5C98,30,43.4,86.2,36,154.6C28.6,226,68.5,289.7,128.9,314c4.4,1.5,8.9-1.5,8.9-7.6v-24.3
				c0,0-5.9,1.5-13.3,1.5c-20.7,0-29.5-18.2-31-28.9c-1.5-6.1-4.4-10.6-8.9-15.2c-4.4-1.5-5.9-1.5-5.9-3c0-3,4.4-3,5.9-3
				c8.9,0,16.2,10.6,19.2,15.2c7.4,12.1,16.2,15.2,20.7,15.2c5.9,0,10.3-1.5,13.3-3c1.5-10.6,5.9-21.3,14.8-27.3
				c-33.9-7.6-59-27.3-59-60.7c0-16.7,7.4-33.4,17.7-45.6c-1.5-3-3-10.6-3-21.3c0-6.1,0-15.2,4.4-24.3c0,0,20.7,0,41.3,19.7
				c7.4-3,17.7-4.6,28-4.6c10.3,0,20.7,1.5,29.5,4.6c19.2-19.7,41.3-19.7,41.3-19.7c3,9.1,3,18.2,3,24.3c0,12.1-1.5,18.2-3,21.3
				c10.3,12.1,17.7,27.3,17.7,45.6c0,33.4-25.1,53.2-59,60.7c8.9,7.6,14.8,21.3,14.8,34.9V308c0,4.6,4.4,9.1,10.3,7.6
				c54.6-22.8,92.9-77.5,92.9-141.2C329.6,83.2,254.3,11.8,165.8,22.5z"/>
		</g>
	</g>
</g>
<g id="Contorno">
</g>
</svg>
