<svg xmlns="http://www.w3.org/2000/svg" xmlns:xlink="http://www.w3.org/1999/xlink" viewBox="0 0 48 48"><defs><style>.cls-1{fill:none;}.cls-2{clip-path:url(#clip-path);}.cls-3{fill:#fbbc05;}.cls-4{fill:#ea4335;}.cls-5{fill:#34a853;}.cls-6{fill:#4285f4;}</style><clipPath id="clip-path" transform="translate(2 2)"><path class="cls-1" d="M42.5,18H22v8.5H33.8C32.7,31.9,28.1,35,22,35A13,13,0,0,1,22,9a12.72,12.72,0,0,1,8.1,2.9l6.4-6.4A22,22,0,1,0,22,44c11,0,21-8,21-22A18.25,18.25,0,0,0,42.5,18Z"/></clipPath></defs><g id="Capa_2" data-name="Capa 2"><g id="Слой_1" data-name="Слой 1"><g class="cls-2"><path class="cls-3" d="M-2,35V9L15,22Z" transform="translate(2 2)"/></g><g class="cls-2"><path class="cls-4" d="M-2,9,15,22l7-6.1L46,12V-2H-2Z" transform="translate(2 2)"/></g><g class="cls-2"><path class="cls-5" d="M-2,35,28,12l7.9,1L46-2V46H-2Z" transform="translate(2 2)"/></g><g class="cls-2"><path class="cls-6" d="M46,46,15,22l-4-3L46,9Z" transform="translate(2 2)"/></g></g></g></svg>