<?xml version="1.0" encoding="utf-8"?>
<!-- Generator: Adobe Illustrator 25.3.0, SVG Export Plug-In . SVG Version: 6.00 Build 0)  -->
<svg version="1.1" xmlns="http://www.w3.org/2000/svg" xmlns:xlink="http://www.w3.org/1999/xlink" x="0px" y="0px"
	 viewBox="0 0 422.9 432.1" style="enable-background:new 0 0 422.9 432.1;" xml:space="preserve">
<style type="text/css">
	.st0{fill:#FFFFFF;}
	.st1{fill:#31A853;}
	.st2{fill:#E5DCC3;}
	.st3{fill:#C7BEA2;}
	.st4{fill:#AAA492;}
	.st5{fill:#9A9483;}
</style>
<g id="Contorno">
	<g>
		<g>
			<g>
				<path class="st0" d="M215.2,401.3c-34.4,0-68-9.6-97.2-27.6c-29.1-18-52.5-43.6-67.9-74.1c-0.1-0.1-0.2-0.3-0.2-0.4
					c-26.5-52-26.5-114.1,0-166.2c15.4-30.7,38.9-56.5,68.1-74.5c29.2-18.1,62.8-27.6,97.2-27.6c47.3,0,90.2,16.7,124,48.4
					c2,1.9,3.1,4.4,3.2,7.1c0,2.7-1,5.3-2.9,7.2l-49.9,49.9c-2,1.9-4.5,2.9-7.1,2.9c-2.5,0-5-0.9-6.9-2.8
					c-16.4-15.6-36.7-23.5-60.3-23.5c-39.8,0-75.3,26-88.5,64.8c-0.1,0.3-0.2,0.6-0.3,0.9c-3.3,9.8-5,19.9-5,30.2
					c0,9.9,1.5,19.6,4.6,29c0.2,0.4,0.3,0.8,0.5,1.2c13.1,39.2,48.8,65.6,88.8,65.6c20.3,0,38.3-5,53.4-14.9
					c0.1-0.1,0.3-0.2,0.4-0.3c12.9-8.7,22.2-20.3,27.4-34h-81.3c-5.5,0-10-4.5-10-10v-65.8c0-5.5,4.5-10,10-10h165
					c4.9,0,9.1,3.5,9.9,8.4c1.9,11.5,2.9,23.2,2.9,34.8c0,54.6-19.4,102.7-54.6,135.6c-0.2,0.2-0.4,0.4-0.6,0.6
					C305.8,385.7,263.4,401.3,215.2,401.3C215.2,401.3,215.2,401.3,215.2,401.3z"/>
				<path class="st0" d="M215.2,401.3c-34.4,0-68-9.6-97.2-27.6c-29.1-18-52.5-43.6-67.9-74.1c-0.1-0.1-0.2-0.3-0.2-0.4
					c-26.5-52-26.5-114.1,0-166.2c15.4-30.7,38.9-56.5,68.1-74.5c29.2-18.1,62.8-27.6,97.2-27.6c47.3,0,90.2,16.7,124,48.4
					c2,1.9,3.1,4.4,3.2,7.1c0,2.7-1,5.3-2.9,7.2l-49.9,49.9c-2,1.9-4.5,2.9-7.1,2.9c-2.5,0-5-0.9-6.9-2.8
					c-16.4-15.6-36.7-23.5-60.3-23.5c-39.8,0-75.3,26-88.5,64.8c-0.1,0.3-0.2,0.6-0.3,0.9c-3.3,9.8-5,19.9-5,30.2
					c0,9.9,1.5,19.6,4.6,29c0.2,0.4,0.3,0.8,0.5,1.2c13.1,39.2,48.8,65.6,88.8,65.6c20.3,0,38.3-5,53.4-14.9
					c0.1-0.1,0.3-0.2,0.4-0.3c12.9-8.7,22.2-20.3,27.4-34h-81.3c-5.5,0-10-4.5-10-10v-65.8c0-5.5,4.5-10,10-10h165
					c4.9,0,9.1,3.5,9.9,8.4c1.9,11.5,2.9,23.2,2.9,34.8c0,54.6-19.4,102.7-54.6,135.6c-0.2,0.2-0.4,0.4-0.6,0.6
					C305.8,385.7,263.4,401.3,215.2,401.3C215.2,401.3,215.2,401.3,215.2,401.3z"/>
			</g>
		</g>
	</g>
</g>
<g id="Original">
	<path class="st1" d="M58.8,294.6"/>
	<path class="st1" d="M117,249.5"/>
	<g>
		<path class="st2" d="M331,348.8c33-30.5,52-75.5,52-128.8c0-11.1-1-22.2-2.8-33.1h-165v65.8h94.5c-4.2,21.6-16.7,39.9-35,52.3"/>
		<path class="st3" d="M58.8,294.6c29.6,59.2,90.2,96.7,156.4,96.7c47.3,0,86.9-15.8,115.8-42.5l-56.4-43.8
			c-15.8,10.5-35.8,16.9-59.4,16.9c-45.7,0-84.4-30.8-98.3-72.4"/>
		<path class="st4" d="M58.8,137.5c-25.1,49.4-25.1,107.8,0,157.1l58.1-45.1c-3.7-10.7-5.6-22-5.6-33.4c0-11.4,1.9-22.6,5.6-33.4"/>
		<path class="st5" d="M215.2,110.2c25.9,0,48.9,8.9,67.2,26.3l49.9-49.9c-30.2-28.3-69.8-45.7-117.1-45.7
			c-66.2,0-126.8,37.4-156.4,96.7l58.1,45.1C130.7,141,169.5,110.2,215.2,110.2z"/>
	</g>
</g>
</svg>
