<svg xmlns="http://www.w3.org/2000/svg" viewBox="0 0 206.52 166"><defs><style>.cls-1{fill:#e5dcc3;}.cls-2{fill:#9a9483;}</style></defs><g id="Capa_2" data-name="Capa 2"><g id="Capa_1-2" data-name="Capa 1"><path class="cls-1" d="M103.93,128.28a1.71,1.71,0,0,1-.77-.18c-27.2-13.59-64-8-64.37-7.9a1.71,1.71,0,0,1-2-1.39c0-.1,0-.2,0-.3V2.29A1.73,1.73,0,0,1,38.32.58c52.06-5.42,67,28.85,67.17,29.2a1.69,1.69,0,0,1,.13.66v96.13a1.69,1.69,0,0,1-1.69,1.71h0ZM57.75,115.5c12.68,0,29.55,1.61,44.46,8.36V30.8c-1.57-3.43-15.77-31.13-62-27V116.5a144.81,144.81,0,0,1,17.54-1Z"/><path class="cls-1" d="M90.58,137.86a1.82,1.82,0,0,1-.65-.12c-32.67-13.38-65.78-.14-66.11,0a1.74,1.74,0,0,1-1.61-.17,1.71,1.71,0,0,1-.75-1.42V8.61A1.72,1.72,0,0,1,22,7.37a1.67,1.67,0,0,1,1.27-.47c5.19.26,11.15,6.16,11.81,6.83a1.71,1.71,0,1,1-2.44,2.41h0c-1.28-1.29-4.73-4.31-7.75-5.41v123c8.35-2.89,37.11-11.09,66.35.87a1.71,1.71,0,0,1-.65,3.3Z"/><path class="cls-1" d="M93.55,42.19a1.75,1.75,0,0,1-1.24-.52c-13.59-14.09-36.73-12.55-37-12.53a1.71,1.71,0,1,1-.26-3.42c1-.08,25-1.67,39.68,13.56a1.72,1.72,0,0,1,0,2.43A1.69,1.69,0,0,1,93.55,42.19Z"/><path class="cls-1" d="M93.55,53.7a1.74,1.74,0,0,1-1.25-.53C78.71,38.91,55.61,40.64,55.37,40.65a1.71,1.71,0,1,1-.28-3.41c1-.09,25-1.87,39.7,13.56a1.71,1.71,0,0,1,0,2.42,1.68,1.68,0,0,1-1.2.48Z"/><path class="cls-1" d="M93.55,65.85a1.75,1.75,0,0,1-1.17-.45c-15.29-14.13-36.8-12.61-37-12.59a1.72,1.72,0,0,1-.52-3.4l.25,0c.93-.08,23.19-1.68,39.61,13.49a1.72,1.72,0,0,1,.1,2.42A1.67,1.67,0,0,1,93.55,65.85Z"/><path class="cls-1" d="M93.55,77.37a1.71,1.71,0,0,1-1.17-.46C75,60.74,55.75,64.25,55.56,64.29a1.7,1.7,0,0,1-2-1.35,1.72,1.72,0,0,1,1.35-2C55.75,60.76,76,57,94.71,74.4a1.72,1.72,0,0,1,.09,2.42h0A1.7,1.7,0,0,1,93.55,77.37Z"/><path class="cls-1" d="M93.55,89.51a1.65,1.65,0,0,1-1.2-.49C76.43,73.51,55.69,76.42,55.49,76.45A1.71,1.71,0,1,1,55,73.06h0c.92-.14,22.6-3.23,39.77,13.51a1.71,1.71,0,0,1,0,2.42h0A1.64,1.64,0,0,1,93.55,89.51Z"/><path class="cls-1" d="M93.55,101a1.72,1.72,0,0,1-1.26-.54C77.42,84.63,55.73,87.92,55.51,88a1.72,1.72,0,1,1-.74-3.36l.19,0c1-.15,23.69-3.65,39.84,13.57A1.71,1.71,0,0,1,93.55,101Z"/><path class="cls-1" d="M103.93,128.28a1.59,1.59,0,0,1-.9-.25,1.7,1.7,0,0,1-.82-1.46V30.44a1.7,1.7,0,0,1,.14-.66c.14-.35,15.1-34.63,67.16-29.2a1.72,1.72,0,0,1,1.54,1.71V118.51a1.71,1.71,0,0,1-1.71,1.72l-.29,0c-.37-.06-37.18-5.69-64.38,7.9A1.59,1.59,0,0,1,103.93,128.28Zm1.71-97.47v93c24.4-11,54-8.32,62-7.32V3.85c-45.83-4.12-60.49,23.78-62,27Z"/><path class="cls-1" d="M117.26,137.86a1.71,1.71,0,0,1-.65-3.3c29.23-12,58-3.76,66.34-.87v-123c-3,1.1-6.46,4.12-7.74,5.41a1.71,1.71,0,1,1-2.44-2.41h0c.66-.67,6.62-6.57,11.81-6.83a1.67,1.67,0,0,1,1.27.47,1.72,1.72,0,0,1,.53,1.24V136.15a1.69,1.69,0,0,1-.76,1.42,1.72,1.72,0,0,1-1.6.17c-.34-.14-33.49-13.36-66.11,0A1.82,1.82,0,0,1,117.26,137.86Z"/><path class="cls-1" d="M114.31,42.19a1.7,1.7,0,0,1-1.72-1.7,1.73,1.73,0,0,1,.49-1.21c14.7-15.23,38.65-13.64,39.67-13.56a1.71,1.71,0,0,1,1.58,1.83h0a1.68,1.68,0,0,1-1.77,1.59h-.06c-.24,0-23.38-1.54-36.95,12.53A1.75,1.75,0,0,1,114.31,42.19Z"/><path class="cls-1" d="M114.31,53.7a1.71,1.71,0,0,1-1.24-2.9c14.71-15.44,38.69-13.65,39.69-13.56a1.7,1.7,0,0,1,1.57,1.82v0a1.65,1.65,0,0,1-1.72,1.58h-.13c-.23,0-23.37-1.71-36.93,12.52A1.7,1.7,0,0,1,114.31,53.7Z"/><path class="cls-1" d="M114.31,65.85a1.71,1.71,0,0,1-1.75-1.67,1.74,1.74,0,0,1,.59-1.33c16.42-15.16,38.67-13.56,39.61-13.49a1.72,1.72,0,0,1-.27,3.42c-.21,0-21.72-1.54-37,12.59A1.69,1.69,0,0,1,114.31,65.85Z"/><path class="cls-1" d="M114.31,77.37a1.71,1.71,0,0,1-1.75-1.67,1.74,1.74,0,0,1,.59-1.33C131.91,57,152.15,60.73,153,60.9a1.71,1.71,0,0,1-.67,3.36c-.19,0-19.38-3.56-36.81,12.62A1.72,1.72,0,0,1,114.31,77.37Z"/><path class="cls-1" d="M114.31,89.51a1.71,1.71,0,0,1-1.2-2.94C130.26,69.83,152,72.92,152.88,73a1.71,1.71,0,1,1-.51,3.39h0c-.2,0-21-2.94-36.86,12.57A1.71,1.71,0,0,1,114.31,89.51Z"/><path class="cls-1" d="M114.31,101a1.71,1.71,0,0,1-1.25-2.88c16.15-17.21,38.88-13.72,39.84-13.57a1.72,1.72,0,0,1-.55,3.39c-.22,0-21.92-3.33-36.79,12.52A1.69,1.69,0,0,1,114.31,101Z"/><path class="cls-2" d="M12.05,21.76H6.26A6.26,6.26,0,0,0,0,28V147.41a6.26,6.26,0,0,0,6.26,6.26H90S95,166,104.12,166s14.14-11.48,14.14-11.48h82a6.26,6.26,0,0,0,6.26-6.26h0V28a6.26,6.26,0,0,0-6.26-6.26h-4.91V136.29a5.83,5.83,0,0,1-5.83,5.82h-65.4a7.85,7.85,0,0,0-7.2,5c-1.67,4-5.27,9.09-12.79,9.09-6.81,0-10.62-5.37-12.53-9.47a7.88,7.88,0,0,0-7.13-4.57H17.37a5.81,5.81,0,0,1-5.82-5.8v-.05Z"/><path class="cls-2" d="M115.73,13.26V36.67l7,6.34,10.69-15.8V3.27l-.6-.46A6.75,6.75,0,0,0,126,1.93,38.66,38.66,0,0,0,120.26,5a9.24,9.24,0,0,0-3.79,5.42Z"/></g></g></svg>