<svg width="56" height="45" viewBox="0 0 56 45" fill="none" xmlns="http://www.w3.org/2000/svg">
<path d="M28.1301 34.7749C28.0578 34.7752 27.9864 34.7584 27.9217 34.7261C20.5596 31.0421 10.5992 32.5575 10.4991 32.5846C10.4388 32.5959 10.3768 32.5951 10.3169 32.5822C10.2569 32.5693 10.2001 32.5446 10.1497 32.5096C10.0993 32.4745 10.0564 32.4298 10.0235 32.378C9.9905 32.3262 9.96816 32.2683 9.95773 32.2078C9.95773 32.1807 9.95773 32.1535 9.95773 32.1264V0.621574C9.95829 0.506977 10.0007 0.39655 10.077 0.311147C10.1533 0.225744 10.2582 0.171275 10.3718 0.158028C24.4626 -1.31122 28.5063 7.97867 28.5523 8.07355C28.5759 8.13022 28.5879 8.19107 28.5875 8.25246V34.3113C28.5882 34.372 28.5769 34.4321 28.5543 34.4883C28.5316 34.5445 28.498 34.5957 28.4555 34.6388C28.4129 34.6819 28.3622 34.7161 28.3064 34.7395C28.2505 34.7629 28.1906 34.7749 28.1301 34.7749ZM15.6308 31.3105C19.0629 31.3105 23.629 31.7469 27.6645 33.5767V8.35005C27.2396 7.42025 23.3962 -0.0886541 10.8834 1.0309V31.5816C12.4589 31.3951 14.0443 31.3045 15.6308 31.3105V31.3105Z" fill="white"/>
<path d="M24.5167 37.3719C24.4566 37.3719 24.397 37.3608 24.3408 37.3393C15.4982 33.7123 6.53653 37.3014 6.44721 37.3393C6.37628 37.3676 6.29956 37.3782 6.22365 37.3701C6.14774 37.3621 6.07491 37.3357 6.01144 37.2932C5.94872 37.2506 5.89741 37.1932 5.86202 37.1261C5.82662 37.059 5.80823 36.9842 5.80844 36.9083V2.33483C5.80886 2.27181 5.82203 2.20954 5.84715 2.15177C5.87227 2.09399 5.90882 2.04192 5.9546 1.99869C5.99984 1.95459 6.0538 1.92047 6.113 1.89852C6.1722 1.87658 6.23534 1.8673 6.29834 1.87128C7.70309 1.94176 9.31624 3.54113 9.49488 3.72275C9.53771 3.76618 9.57158 3.81764 9.59456 3.87418C9.61753 3.93072 9.62917 3.99124 9.62879 4.05228C9.62841 4.11332 9.61603 4.17369 9.59236 4.22994C9.56869 4.28619 9.53419 4.33723 9.49082 4.38012C9.44746 4.42302 9.39608 4.45694 9.33963 4.47995C9.28318 4.50296 9.22275 4.51461 9.1618 4.51423C9.10085 4.51386 9.04058 4.50146 8.98441 4.47775C8.92825 4.45404 8.87729 4.41949 8.83446 4.37606V4.37606C8.48801 4.02636 7.55422 3.2077 6.73682 2.90952V36.2523C8.99686 35.4689 16.7811 33.246 24.6954 36.4881C24.796 36.528 24.8795 36.6019 24.9313 36.697C24.9832 36.7921 25.0001 36.9024 24.9792 37.0088C24.9583 37.1151 24.9009 37.2107 24.8169 37.279C24.7329 37.3474 24.6276 37.384 24.5194 37.3827L24.5167 37.3719Z" fill="white"/>
<path d="M25.3206 11.4377C25.2581 11.4375 25.1963 11.4249 25.1387 11.4008C25.0811 11.3766 25.0289 11.3412 24.985 11.2967C21.3067 7.47719 15.0435 7.89465 14.9704 7.90008C14.9096 7.9047 14.8486 7.8973 14.7906 7.87828C14.7327 7.85926 14.6791 7.829 14.6328 7.78923C14.5395 7.7089 14.4817 7.59471 14.4724 7.47177C14.4631 7.34883 14.5029 7.22721 14.5831 7.13367C14.6633 7.04013 14.7773 6.98233 14.9001 6.97298C15.1707 6.9513 21.6666 6.52028 25.64 10.6488C25.7271 10.7362 25.776 10.8547 25.776 10.9782C25.776 11.1017 25.7271 11.2201 25.64 11.3075C25.5545 11.391 25.4399 11.4377 25.3206 11.4377V11.4377Z" fill="white"/>
<path d="M25.3206 14.5578C25.2575 14.5578 25.195 14.5451 25.1368 14.5204C25.0787 14.4957 25.0262 14.4596 24.9823 14.4141C21.3039 10.5485 15.0516 11.0175 14.9866 11.0202C14.8643 11.0303 14.7429 10.9912 14.6492 10.9117C14.5556 10.8321 14.4973 10.7185 14.4873 10.596C14.4772 10.4734 14.5162 10.3518 14.5956 10.258C14.6751 10.1642 14.7885 10.1059 14.9109 10.0958C15.1815 10.0714 21.6774 9.5889 25.6562 13.7717C25.6993 13.8147 25.7334 13.8658 25.7567 13.9221C25.78 13.9784 25.792 14.0387 25.792 14.0997C25.792 14.1606 25.78 14.2209 25.7567 14.2772C25.7334 14.3335 25.6993 14.3846 25.6562 14.4277C25.6133 14.4698 25.5625 14.5029 25.5068 14.5253C25.4511 14.5476 25.3914 14.5587 25.3314 14.5578H25.3206Z" fill="white"/>
<path d="M25.3206 17.8514C25.2036 17.8513 25.0908 17.8078 25.0039 17.7294C20.8655 13.899 15.0435 14.3111 14.9893 14.3165C14.8683 14.333 14.7457 14.3012 14.6478 14.228C14.55 14.1547 14.4848 14.0459 14.4664 13.925C14.4479 13.8041 14.4776 13.6807 14.5491 13.5816C14.6206 13.4824 14.7282 13.4153 14.8486 13.3948H14.9163C15.168 13.3732 21.193 12.9394 25.6373 17.0517C25.7272 17.1354 25.7806 17.2513 25.7856 17.3741C25.7907 17.497 25.7471 17.6169 25.6643 17.7077C25.6205 17.7547 25.5672 17.7919 25.5079 17.8167C25.4486 17.8414 25.3848 17.8533 25.3206 17.8514V17.8514Z" fill="white"/>
<path d="M25.3206 20.9742C25.2031 20.9744 25.0898 20.9299 25.0039 20.8495C20.2998 16.4662 15.0895 17.4177 15.0381 17.4285C14.9785 17.4403 14.9172 17.4402 14.8577 17.4282C14.7982 17.4161 14.7417 17.3924 14.6913 17.3584C14.641 17.3244 14.5979 17.2807 14.5645 17.2299C14.5311 17.1792 14.5081 17.1223 14.4968 17.0625C14.4744 16.9422 14.5002 16.818 14.5686 16.7165C14.637 16.6151 14.7424 16.5447 14.8622 16.5204C15.0895 16.4716 20.5704 15.4523 25.6346 20.1691C25.7242 20.2532 25.777 20.3692 25.7815 20.4921C25.7861 20.615 25.742 20.7347 25.6589 20.8251V20.8251C25.6159 20.8721 25.5636 20.9095 25.5054 20.9352C25.4471 20.9609 25.3842 20.9741 25.3206 20.9742V20.9742Z" fill="white"/>
<path d="M25.3206 24.2652C25.2603 24.2661 25.2004 24.2549 25.1446 24.232C25.0888 24.2092 25.0382 24.1753 24.9958 24.1323C20.6868 19.9279 15.0732 20.7167 15.0191 20.7249C14.8974 20.7425 14.7738 20.711 14.6753 20.6372C14.6265 20.6007 14.5854 20.555 14.5543 20.5026C14.5232 20.4502 14.5027 20.3921 14.494 20.3318C14.4853 20.2714 14.4886 20.21 14.5036 20.1509C14.5186 20.0918 14.5451 20.0363 14.5815 19.9874C14.6551 19.8888 14.7648 19.8235 14.8865 19.8059V19.8059C15.1355 19.7679 21.0035 18.9303 25.6508 23.4682C25.6938 23.5112 25.728 23.5624 25.7513 23.6186C25.7746 23.6749 25.7866 23.7353 25.7866 23.7962C25.7866 23.8571 25.7746 23.9174 25.7513 23.9737C25.728 24.03 25.6938 24.0811 25.6508 24.1242V24.1242C25.6086 24.1694 25.5574 24.2053 25.5005 24.2296C25.4437 24.2539 25.3824 24.266 25.3206 24.2652Z" fill="white"/>
<path d="M25.3206 27.3798C25.2567 27.3801 25.1935 27.3673 25.1349 27.3421C25.0762 27.317 25.0233 27.28 24.9795 27.2334C20.9548 22.9423 15.0841 23.8341 15.0245 23.8558C14.9039 23.8824 14.7777 23.8599 14.6737 23.7933C14.5696 23.7267 14.4962 23.6215 14.4697 23.5007C14.4431 23.3799 14.4655 23.2535 14.532 23.1493C14.5985 23.0451 14.7036 22.9716 14.8242 22.945H14.8757C15.1463 22.9043 21.2877 21.9555 25.6589 26.6235C25.7132 26.6901 25.748 26.7706 25.7592 26.8558C25.7705 26.9411 25.7579 27.0278 25.7228 27.1062C25.6877 27.1847 25.6315 27.2519 25.5604 27.3002C25.4894 27.3485 25.4064 27.3761 25.3206 27.3798V27.3798Z" fill="white"/>
<path d="M28.1301 34.7749C28.0439 34.7772 27.9591 34.7536 27.8865 34.7071C27.8185 34.6659 27.7624 34.6079 27.7235 34.5385C27.6846 34.4691 27.6643 34.3909 27.6645 34.3113V8.25247C27.6651 8.1909 27.678 8.13006 27.7024 8.07356C27.7403 7.97868 31.7894 -1.31393 45.8802 0.158036C45.9946 0.17009 46.1004 0.22412 46.1774 0.309711C46.2544 0.395302 46.297 0.506397 46.297 0.621582V32.1264C46.2974 32.1875 46.2857 32.2481 46.2626 32.3047C46.2395 32.3612 46.2054 32.4126 46.1624 32.456C46.1194 32.4993 46.0682 32.5337 46.0119 32.5572C45.9556 32.5806 45.8952 32.5927 45.8342 32.5927H45.7557C45.6555 32.5764 35.6924 31.0503 28.3304 34.7342C28.2678 34.7637 28.1991 34.7776 28.1301 34.7749V34.7749ZM28.5929 8.35277V33.5632C35.1971 30.5813 43.2087 31.3078 45.374 31.5789V1.04447C32.9695 -0.0723818 29.0016 7.49074 28.5929 8.36361V8.35277Z" fill="white"/>
<path d="M31.738 37.3718C31.6298 37.3732 31.5246 37.3365 31.4406 37.2682C31.3566 37.1999 31.2991 37.1042 31.2782 36.9979C31.2573 36.8916 31.2743 36.7813 31.3261 36.6862C31.378 36.591 31.4615 36.5171 31.5621 36.4773C39.4736 33.2243 47.2606 35.458 49.5179 36.2414V2.89865C48.7059 3.19684 47.7694 4.0155 47.423 4.36519C47.3365 4.45291 47.2187 4.50261 47.0956 4.50337C46.9726 4.50413 46.8542 4.45589 46.7666 4.36926C46.679 4.28263 46.6294 4.1647 46.6287 4.04142C46.6279 3.91814 46.6761 3.7996 46.7626 3.71189V3.71189C46.9412 3.53027 48.5544 1.9309 49.9591 1.86042C50.0221 1.85644 50.0852 1.86572 50.1444 1.88766C50.2036 1.9096 50.2576 1.94373 50.3028 1.98783C50.3481 2.03129 50.3842 2.08347 50.4088 2.14123C50.4335 2.19899 50.4462 2.26115 50.4463 2.32396V36.9083C50.4467 36.9845 50.4281 37.0597 50.3922 37.1269C50.3563 37.1941 50.3042 37.2513 50.2406 37.2932C50.1776 37.3357 50.1053 37.3621 50.0298 37.3701C49.9543 37.3781 49.878 37.3676 49.8075 37.3393C49.7155 37.3014 40.743 33.7177 31.914 37.3393C31.8578 37.3608 31.7982 37.3718 31.738 37.3718Z" fill="white"/>
<path d="M30.9396 11.4377C30.8787 11.4384 30.8183 11.427 30.7618 11.4042C30.7054 11.3813 30.654 11.3475 30.6107 11.3046C30.5674 11.2618 30.533 11.2107 30.5096 11.1544C30.4861 11.0982 30.474 11.0378 30.474 10.9768C30.4738 10.8543 30.5214 10.7366 30.6067 10.6488C34.5854 6.52028 41.0678 6.9513 41.3439 6.97298C41.4663 6.982 41.5801 7.03932 41.6603 7.13235C41.7404 7.22537 41.7805 7.34649 41.7715 7.46906V7.46906C41.7684 7.52889 41.7535 7.58752 41.7278 7.64159C41.702 7.69566 41.6658 7.7441 41.6213 7.78414C41.5768 7.82418 41.5248 7.85503 41.4684 7.87493C41.412 7.89482 41.3522 7.90337 41.2925 7.90008H41.2762C41.2113 7.90008 34.9481 7.48261 31.2752 11.2967C31.2313 11.3412 31.179 11.3766 31.1214 11.4008C31.0638 11.4249 31.002 11.4375 30.9396 11.4377Z" fill="white"/>
<path d="M30.9396 14.5578C30.8484 14.5584 30.759 14.532 30.6827 14.482C30.6064 14.432 30.5466 14.3605 30.5108 14.2765C30.4749 14.1925 30.4646 14.0998 30.4812 14.0099C30.4978 13.9201 30.5405 13.8372 30.6039 13.7716C34.5854 9.58616 41.0759 10.0714 41.3466 10.0958C41.4683 10.1048 41.5814 10.1618 41.6611 10.2544C41.7407 10.3469 41.7805 10.4673 41.7715 10.5892V10.5892C41.7691 10.6479 41.7551 10.7056 41.7304 10.7589C41.7057 10.8123 41.6707 10.8602 41.6274 10.9C41.5842 10.9398 41.5336 10.9706 41.4784 10.9908C41.4232 11.0109 41.3647 11.02 41.306 11.0175H41.2708C41.2086 11.0175 34.9454 10.5539 31.2752 14.4114C31.2322 14.4575 31.1803 14.4943 31.1225 14.5194C31.0648 14.5446 31.0025 14.5577 30.9396 14.5578V14.5578Z" fill="white"/>
<path d="M30.9396 17.8514C30.8788 17.8528 30.8183 17.8423 30.7616 17.8203C30.7049 17.7983 30.6531 17.7654 30.6091 17.7233C30.5651 17.6813 30.5298 17.631 30.5052 17.5753C30.4807 17.5196 30.4673 17.4596 30.4659 17.3987C30.465 17.3306 30.4787 17.2631 30.5063 17.2009C30.5339 17.1387 30.5746 17.0831 30.6256 17.0381C35.0699 12.9286 41.0921 13.3623 41.3466 13.3813C41.4627 13.3992 41.5678 13.4604 41.6408 13.5527C41.7138 13.645 41.7492 13.7615 41.7399 13.8788C41.7307 13.9962 41.6774 14.1057 41.5909 14.1853C41.5044 14.265 41.391 14.309 41.2735 14.3084C41.2167 14.3084 35.3947 13.8909 31.2589 17.7213C31.1735 17.8047 31.0589 17.8514 30.9396 17.8514V17.8514Z" fill="white"/>
<path d="M30.9396 20.9742C30.8788 20.9757 30.8183 20.9651 30.7616 20.9431C30.7049 20.9212 30.6531 20.8882 30.6091 20.8462C30.5651 20.8041 30.5298 20.7538 30.5052 20.6981C30.4807 20.6424 30.4673 20.5824 30.4659 20.5215C30.465 20.4535 30.4787 20.386 30.5063 20.3237C30.5339 20.2615 30.5746 20.206 30.6256 20.161C35.7032 15.4523 41.1815 16.4635 41.4115 16.5096C41.5321 16.5336 41.6382 16.6047 41.7065 16.7072C41.7748 16.8096 41.7996 16.935 41.7756 17.0558C41.7515 17.1766 41.6806 17.2828 41.5783 17.3512C41.476 17.4196 41.3508 17.4445 41.2302 17.4204C41.1788 17.4204 35.9847 16.4553 31.2671 20.8414C31.1796 20.9271 31.0619 20.9748 30.9396 20.9742V20.9742Z" fill="white"/>
<path d="M30.9396 24.2651C30.8471 24.2658 30.7565 24.2387 30.6795 24.1873C30.6025 24.1359 30.5427 24.0626 30.5078 23.9768C30.4728 23.891 30.4643 23.7967 30.4834 23.706C30.5025 23.6154 30.5482 23.5325 30.6148 23.4682C35.2566 18.9303 41.1409 19.7679 41.3791 19.7896C41.5007 19.8079 41.6101 19.8739 41.6832 19.9731C41.7563 20.0722 41.7871 20.1964 41.7688 20.3182C41.7505 20.4401 41.6846 20.5497 41.5856 20.6229C41.4866 20.6961 41.3627 20.7269 41.241 20.7086V20.7086C41.1869 20.7086 35.5571 19.9116 31.2644 24.116C31.2228 24.1612 31.1727 24.1977 31.1169 24.2232C31.0611 24.2488 31.0009 24.2631 30.9396 24.2651V24.2651Z" fill="white"/>
<path d="M30.9396 27.3798C30.8492 27.38 30.7608 27.3537 30.6852 27.3041C30.6096 27.2545 30.5502 27.1839 30.5142 27.1008C30.4782 27.0178 30.4673 26.9261 30.4828 26.8369C30.4982 26.7478 30.5394 26.6651 30.6012 26.5991C34.9725 21.9339 41.1246 22.8799 41.3845 22.9206C41.5005 22.9464 41.6023 23.0156 41.669 23.1141C41.7357 23.2126 41.7622 23.333 41.7432 23.4504C41.7242 23.5679 41.661 23.6737 41.5666 23.746C41.4723 23.8184 41.3538 23.8518 41.2356 23.8395C41.1761 23.8395 35.3027 22.9368 31.2779 27.2335C31.2347 27.28 31.1824 27.3171 31.1241 27.3423C31.0659 27.3675 31.003 27.3803 30.9396 27.3798V27.3798Z" fill="white"/>
<path d="M3.2615 5.89949H1.69435C1.24592 5.89949 0.815772 6.07753 0.498175 6.3946C0.180577 6.71167 0.0014327 7.14191 0 7.59103L0 39.9606C0 40.4107 0.178512 40.8423 0.496265 41.1606C0.814018 41.4788 1.24498 41.6576 1.69435 41.6576H24.3597C24.3597 41.6576 25.713 45 28.1815 45C30.6499 45 32.0087 41.888 32.0087 41.888H54.2031C54.6525 41.888 55.0834 41.7092 55.4012 41.391C55.7189 41.0727 55.8974 40.6411 55.8974 40.1911V7.59103C55.8974 7.14097 55.7189 6.70934 55.4012 6.3911C55.0834 6.07286 54.6525 5.89407 54.2031 5.89407H52.8741V36.9462C52.8734 37.3649 52.7068 37.7662 52.411 38.062C52.1152 38.3578 51.7142 38.5239 51.2962 38.5239H33.5948C33.1722 38.5301 32.761 38.6624 32.4139 38.9038C32.0667 39.1452 31.7994 39.4849 31.646 39.8793C31.194 40.9636 30.2196 42.3434 28.1842 42.3434C26.341 42.3434 25.3098 40.8877 24.7928 39.7763C24.6222 39.4072 24.35 39.0946 24.0082 38.8752C23.6663 38.6557 23.269 38.5386 22.863 38.5375H4.70143C4.49492 38.5378 4.29036 38.4974 4.09943 38.4186C3.9085 38.3398 3.73495 38.2241 3.58867 38.0781C3.44239 37.9321 3.32626 37.7587 3.2469 37.5677C3.16755 37.3768 3.12652 37.172 3.12616 36.9652V36.9517L3.2615 5.89949Z" fill="#9A9483"/>
<path d="M31.3239 3.59534V9.94131L33.2185 11.66L36.1119 7.3769V0.887257L35.9495 0.76256C35.6914 0.560779 35.3839 0.432178 35.0592 0.390211C34.7344 0.348245 34.4044 0.394456 34.1036 0.52401C33.5633 0.757178 33.0436 1.03557 32.55 1.35622C32.0388 1.70244 31.6734 2.22574 31.5242 2.82548L31.3239 3.59534Z" fill="#9A9483"/>
</svg>
